<?xml version="1.0" encoding="UTF-8"?>
<svg id="Layer_2" data-name="Layer 2" xmlns="http://www.w3.org/2000/svg" viewBox="0 0 284.46 67.58">
  <defs>
    <style>
      .cls-1 {
        fill: #bc00bf;
      }

      .cls-1, .cls-2, .cls-3, .cls-4 {
        stroke-width: 0px;
      }

      .cls-2 {
        fill: #00c993;
      }

      .cls-3 {
        fill: #ffcb0a;
      }

      .cls-4 {
        fill: #759cff;
      }
    </style>
  </defs>
  <g id="Calque_1" data-name="Calque 1">
    <g>
      <g>
        <g>
          <path class="cls-4" d="M30.38,64.45c-.91,1.26-2.56,1.83-4.1,1.3-1.89-.65-2.89-2.7-2.24-4.59,5.78-16.8,5.88-34.26.29-47.89-.76-1.85.13-3.95,1.97-4.71,1.85-.76,3.95.13,4.71,1.97,6.25,15.23,6.2,34.54-.14,52.98-.12.34-.28.66-.49.94Z"/>
          <path class="cls-4" d="M54.43,32.86c-.24.33-.54.63-.9.87-15.99,10.86-34.37,15.73-50.45,13.34-1.97-.29-3.34-2.13-3.04-4.1.29-1.97,2.13-3.33,4.1-3.04,14.31,2.12,30.83-2.32,45.33-12.17,1.65-1.12,3.9-.69,5.02.96.88,1.29.81,2.95-.06,4.14Z"/>
        </g>
        <circle class="cls-1" cx="16.69" cy="28.83" r="8.29"/>
        <g>
          <path class="cls-4" d="M35.2,41.24c-1.55-.05-2.95-1.1-3.37-2.68-.52-1.93.63-3.91,2.55-4.42,17.16-4.59,31.7-14.26,39.88-26.51,1.11-1.66,3.35-2.11,5.01-1,1.66,1.11,2.11,3.35,1,5.01-9.14,13.69-25.19,24.43-44.02,29.47-.35.09-.71.13-1.05.12Z"/>
          <path class="cls-4" d="M74.85,43.55c-.41-.01-.82-.1-1.23-.26-17.94-7.19-32.25-19.73-39.25-34.39-.86-1.8-.1-3.96,1.7-4.81,1.8-.86,3.96-.1,4.81,1.7,6.23,13.05,19.14,24.28,35.42,30.8,1.85.74,2.75,2.84,2.01,4.7-.58,1.45-2,2.31-3.47,2.27Z"/>
        </g>
        <circle class="cls-3" cx="56.8" cy="8.29" r="8.29"/>
        <g>
          <path class="cls-4" d="M55.73,32.44c-.86-1.29-.83-3.04.21-4.3,1.26-1.54,3.54-1.77,5.08-.51,13.75,11.25,30.08,17.42,44.8,16.91,1.99-.07,3.66,1.49,3.73,3.48.07,1.99-1.49,3.66-3.48,3.73-16.45.57-34.54-6.19-49.63-18.54-.28-.23-.52-.5-.71-.78Z"/>
          <path class="cls-4" d="M76.99,65.97c-.23-.34-.4-.73-.51-1.15-4.63-18.76-2.8-37.7,5.02-51.94.96-1.75,3.16-2.39,4.9-1.43,1.75.96,2.39,3.16,1.43,4.9-6.96,12.68-8.54,29.71-4.34,46.74.48,1.94-.7,3.89-2.64,4.37-1.52.37-3.04-.27-3.87-1.49Z"/>
        </g>
        <circle class="cls-2" cx="93.71" cy="30.25" r="8.29"/>
      </g>
      <g>
        <path class="cls-4" d="M121.47,29.81l8.94-20.68h3.77l9,20.68h-5.14l-1.78-4.38h-8.03l-1.72,4.38h-5.02ZM129.65,21.58h5.05l-2.54-6.43-2.51,6.43Z"/>
        <path class="cls-4" d="M157.19,17.17l-2.89,3.04c-.5-.67-1.34-1.08-2.16-1.08-2.16,0-3.5,1.46-3.5,3.59s1.43,3.59,3.5,3.59c.64,0,1.49-.26,2.16-1.08l2.89,3.04c-1.29,1.31-3.24,1.9-5.05,1.9-4.38,0-7.89-2.92-7.89-7.45s3.5-7.45,7.89-7.45c1.78,0,3.8.58,5.05,1.9Z"/>
        <path class="cls-4" d="M157.4,19.12v-3.5h2.8v-4.21h4.38v4.21h3.86v3.5h-3.86v4.99c0,1.75.61,2.37,2.07,2.37.85,0,1.55-.17,1.78-.41v3.65c-1.02.35-2.07.44-3.07.44-3.42,0-5.17-1.64-5.17-4.18v-6.86h-2.8Z"/>
        <path class="cls-4" d="M175.45,11.15c0,1.37-1.11,2.54-2.54,2.54s-2.54-1.17-2.54-2.54c0-1.46,1.17-2.54,2.54-2.54s2.54,1.17,2.54,2.54ZM175.1,29.81h-4.38v-14.19h4.38v14.19Z"/>
        <path class="cls-4" d="M193.5,22.71c0,4.5-3.53,7.45-7.89,7.45s-7.88-2.89-7.88-7.45,3.5-7.45,7.88-7.45,7.89,2.92,7.89,7.45ZM185.61,26.31c2.13,0,3.5-1.4,3.5-3.59s-1.37-3.59-3.53-3.59-3.47,1.49-3.47,3.59,1.34,3.59,3.5,3.59Z"/>
        <path class="cls-4" d="M196.07,29.81v-14.19h4.21v1.93h.06c.79-1.43,2.34-2.28,4.15-2.28,3.59,0,5.26,1.84,5.26,6.51v8.03h-4.38v-7.3c0-2.51-.76-3.39-2.28-3.39-1.75,0-2.63,1.05-2.63,3.48v7.21h-4.38Z"/>
        <path class="cls-4" d="M237.31,22.6c0,3.65-2.22,7.56-6.48,7.56-1.55,0-3.42-.38-4.5-1.87h-.06v8.18h-4.38V15.62h4.03v1.87h.06c.96-1.34,2.69-2.22,4.35-2.22,4.26,0,6.98,3.1,6.98,7.33ZM229.43,26.31c2.13,0,3.5-1.4,3.5-3.59s-1.37-3.59-3.53-3.59-3.48,1.49-3.48,3.59,1.34,3.59,3.5,3.59Z"/>
        <path class="cls-4" d="M255.13,22.71c0,4.5-3.53,7.45-7.89,7.45s-7.88-2.89-7.88-7.45,3.5-7.45,7.88-7.45,7.89,2.92,7.89,7.45ZM247.25,26.31c2.13,0,3.5-1.4,3.5-3.59s-1.37-3.59-3.53-3.59-3.47,1.49-3.47,3.59,1.34,3.59,3.5,3.59Z"/>
        <path class="cls-4" d="M262.08,15.62v7.04c0,1.43,0,3.65,2.28,3.65,1.84,0,2.63-1.14,2.63-3.5v-7.18h4.38v14.19h-4.21v-1.93h-.06c-.79,1.43-2.34,2.28-4.18,2.28-3.71,0-5.23-2.02-5.23-6.54v-8h4.38Z"/>
        <path class="cls-4" d="M274.47,15.62h4.38v2.28h.06c.93-1.72,2.16-2.63,4.12-2.63.47,0,1.02.03,1.43.15v4c-.64-.18-1.2-.29-1.87-.29-3.12,0-3.74,1.66-3.74,4.58v6.1h-4.38v-14.19Z"/>
        <path class="cls-4" d="M127.21,58.62h-4.38v-22.08h4.38v22.08Z"/>
        <path class="cls-4" d="M139.27,49.6c0-1.61-1.34-2.54-2.8-2.54s-2.63.64-3.56,1.69l-2.34-2.39c1.64-1.58,4.03-2.28,6.25-2.28,4.91,0,6.48,2.42,6.48,7.13v7.42h-4.03v-1.78h-.06c-.96,1.52-2.75,2.13-4.5,2.13-2.63,0-5.05-1.52-5.05-4.38,0-4.96,6.13-4.99,9.61-4.99ZM133.87,54.44c0,1.11,1.17,1.55,2.1,1.55,1.67,0,3.3-.88,3.3-2.69v-.91h-1.31c-1.31,0-4.09.2-4.09,2.04Z"/>
        <path class="cls-4" d="M153.32,47.93v-3.5h2.89v-2.66c0-3.5,1.31-5.58,5.55-5.58.91,0,1.75.06,2.57.26l-.2,3.71c-.58-.2-.96-.29-1.43-.29-1.61,0-2.1.64-2.1,2.34v2.22h3.24v3.5h-3.24v10.69h-4.38v-10.69h-2.89Z"/>
        <path class="cls-4" d="M165.5,44.43h4.38v2.28h.06c.93-1.72,2.16-2.63,4.12-2.63.47,0,1.02.03,1.43.15v4c-.64-.18-1.2-.29-1.87-.29-3.12,0-3.74,1.66-3.74,4.58v6.1h-4.38v-14.19Z"/>
        <path class="cls-4" d="M186.3,49.6c0-1.61-1.34-2.54-2.8-2.54s-2.63.64-3.56,1.69l-2.34-2.39c1.64-1.58,4.03-2.28,6.25-2.28,4.91,0,6.48,2.42,6.48,7.13v7.42h-4.03v-1.78h-.06c-.96,1.52-2.75,2.13-4.5,2.13-2.63,0-5.05-1.52-5.05-4.38,0-4.96,6.13-4.99,9.61-4.99ZM180.9,54.44c0,1.11,1.17,1.55,2.1,1.55,1.67,0,3.3-.88,3.3-2.69v-.91h-1.31c-1.31,0-4.09.2-4.09,2.04Z"/>
        <path class="cls-4" d="M191.71,47.93v-3.5h2.8v-4.21h4.38v4.21h3.86v3.5h-3.86v4.99c0,1.75.61,2.37,2.07,2.37.85,0,1.55-.17,1.78-.41v3.65c-1.02.35-2.07.44-3.07.44-3.42,0-5.17-1.64-5.17-4.18v-6.86h-2.8Z"/>
        <path class="cls-4" d="M212.53,44.08c2.75,0,6.54,1.69,6.54,7.59v1.23h-10.16c.35,1.61,1.52,2.75,3.3,2.75,1.49,0,2.39-.76,3.12-1.72l3.07,2.25c-1.37,1.78-3.77,2.8-5.99,2.8-4.23,0-7.89-2.8-7.89-7.45s3.45-7.45,8-7.45ZM214.69,49.92c0-1.61-1.2-2.69-2.72-2.69-1.64,0-2.92,1.05-3.07,2.69h5.78Z"/>
        <path class="cls-4" d="M221.73,44.43h4.38v2.28h.06c.93-1.72,2.16-2.63,4.12-2.63.47,0,1.02.03,1.43.15v4c-.64-.18-1.2-.29-1.87-.29-3.12,0-3.74,1.66-3.74,4.58v6.1h-4.38v-14.19Z"/>
        <path class="cls-4" d="M233.62,58.62v-14.19h4.21v1.93h.06c.79-1.43,2.34-2.28,4.15-2.28,3.59,0,5.26,1.84,5.26,6.51v8.03h-4.38v-7.3c0-2.51-.76-3.39-2.28-3.39-1.75,0-2.63,1.05-2.63,3.48v7.21h-4.38Z"/>
        <path class="cls-4" d="M255.18,39.96c0,1.37-1.11,2.54-2.54,2.54s-2.54-1.17-2.54-2.54c0-1.46,1.17-2.54,2.54-2.54s2.54,1.17,2.54,2.54ZM254.83,58.62h-4.38v-14.19h4.38v14.19Z"/>
        <path class="cls-4" d="M256.61,47.93v-3.5h2.8v-4.21h4.38v4.21h3.86v3.5h-3.86v4.99c0,1.75.61,2.37,2.07,2.37.85,0,1.55-.17,1.78-.41v3.65c-1.02.35-2.07.44-3.07.44-3.42,0-5.17-1.64-5.17-4.18v-6.86h-2.8Z"/>
        <path class="cls-4" d="M277.43,44.08c2.75,0,6.54,1.69,6.54,7.59v1.23h-10.16c.35,1.61,1.52,2.75,3.3,2.75,1.49,0,2.39-.76,3.12-1.72l3.07,2.25c-1.37,1.78-3.77,2.8-5.99,2.8-4.23,0-7.89-2.8-7.89-7.45s3.45-7.45,8-7.45ZM277.64,42.15h-3.86l2.95-4.21h5.96l-5.05,4.21ZM279.59,49.92c0-1.61-1.2-2.69-2.72-2.69-1.64,0-2.92,1.05-3.07,2.69h5.78Z"/>
      </g>
    </g>
  </g>
</svg>