<?xml version="1.0" encoding="UTF-8"?>
<svg id="Layer_2" data-name="Layer 2" xmlns="http://www.w3.org/2000/svg" xmlns:xlink="http://www.w3.org/1999/xlink" viewBox="0 0 542.07 533.98">
  <defs>
    <style>
      .cls-1 {
        fill: url(#linear-gradient-2);
      }

      .cls-2 {
        fill: url(#linear-gradient-6);
      }

      .cls-3 {
        fill: url(#linear-gradient-11);
      }

      .cls-4 {
        fill: url(#linear-gradient-10);
      }

      .cls-5 {
        fill: url(#radial-gradient);
      }

      .cls-6 {
        fill: url(#linear-gradient-5);
      }

      .cls-7 {
        fill: url(#linear-gradient-7);
      }

      .cls-8 {
        fill: url(#linear-gradient-9);
      }

      .cls-9 {
        fill: url(#linear-gradient-3);
      }

      .cls-10 {
        fill: url(#linear-gradient);
      }

      .cls-11 {
        fill: url(#linear-gradient-4);
      }

      .cls-12 {
        fill: url(#linear-gradient-8);
      }

      .cls-13 {
        fill: url(#linear-gradient-12);
      }

      .cls-14 {
        fill: url(#linear-gradient-13);
      }
    </style>
    <radialGradient id="radial-gradient" cx="278.62" cy="195.33" fx="278.62" fy="195.33" r="177.51" gradientUnits="userSpaceOnUse">
      <stop offset="0" stop-color="#4d4d4d"/>
      <stop offset="1" stop-color="#000"/>
    </radialGradient>
    <linearGradient id="linear-gradient" x1="92.77" y1="222.63" x2="97.17" y2="421.02" gradientUnits="userSpaceOnUse">
      <stop offset="0" stop-color="#14ad64"/>
      <stop offset="1" stop-color="#008954"/>
    </linearGradient>
    <linearGradient id="linear-gradient-2" x1="238.63" y1="209.67" x2="243.5" y2="428.78" xlink:href="#linear-gradient"/>
    <linearGradient id="linear-gradient-3" x1="300.59" y1="203" x2="305.63" y2="429.74" xlink:href="#linear-gradient"/>
    <linearGradient id="linear-gradient-4" x1="416.97" y1="205.33" x2="421.71" y2="418.67" xlink:href="#linear-gradient"/>
    <linearGradient id="linear-gradient-5" x1="85.6" y1="446.01" x2="84.39" y2="485.85" xlink:href="#linear-gradient"/>
    <linearGradient id="linear-gradient-6" x1="124.63" y1="455.64" x2="123.4" y2="496.41" xlink:href="#linear-gradient"/>
    <linearGradient id="linear-gradient-7" x1="169.14" y1="462.18" x2="167.92" y2="502.35" xlink:href="#linear-gradient"/>
    <linearGradient id="linear-gradient-8" x1="211.42" y1="467.32" x2="210.24" y2="506.16" xlink:href="#linear-gradient"/>
    <linearGradient id="linear-gradient-9" x1="254.02" y1="470.27" x2="252.85" y2="508.85" xlink:href="#linear-gradient"/>
    <linearGradient id="linear-gradient-10" x1="313.88" y1="471.46" x2="312.68" y2="511.09" xlink:href="#linear-gradient"/>
    <linearGradient id="linear-gradient-11" x1="358.19" y1="468.73" x2="356.96" y2="509.3" xlink:href="#linear-gradient"/>
    <linearGradient id="linear-gradient-12" x1="404.31" y1="465.1" x2="403.04" y2="506.94" xlink:href="#linear-gradient"/>
    <linearGradient id="linear-gradient-13" x1="451.33" y1="459.96" x2="450.13" y2="499.66" xlink:href="#linear-gradient"/>
  </defs>
  <g id="Layer_1-2" data-name="Layer 1">
    <g>
      <path class="cls-5" d="m496.6,222.26c-7.17-1.36-23.81-4.45-26.71-4.95,6.56-8.13,17.3-19.91,17.3-19.91-.62-3.46-1.31-6.88-2.09-10.3-.82-3.52-1.7-7-2.67-10.47-.93-3.25-1.93-6.52-3.01-9.7-.98-2.92-2-5.86-3.1-8.74,0,0-14.38,11.51-21.43,16.64l-.07-.04c8.83-18.97,14.47-32.23,14.47-32.23l.28-.36c-2.94-6.26-6.19-12.36-9.74-18.28-3.43-5.76-7.13-11.37-11.06-16.79,0,0-9.46,12.19-16.61,22.03.92-8.53,1.68-13.64,2.53-18.41.84-4.78,1.79-9.26,3.06-16.51.05-.18.15-.35.22-.48l.12-.2c-4.45-5.19-9.19-10.2-14.19-15.03-5.06-4.66-10.1-9.07-15.36-13.3,0,0-6.67,17.02-10.35,25.68-1.29-11.27-3.68-35.19-3.68-35.19,0-.16.07-.36.07-.53v-.23c-2.59-1.74-5.25-3.47-7.97-5.11-2.75-1.69-5.55-3.35-8.44-4.96-3.3-1.82-6.55-3.53-9.87-5.16-3.07-1.52-6.19-2.93-9.27-4.26,0,0-1.94,16.8-3.4,27.25-4.28-10.66-12.68-33.01-12.68-33.01l-.05-.46c-6.52-2.26-13.07-4.13-19.69-5.74-6.5-1.56-13.02-2.8-19.55-3.75,0,0,2.15,16.62,3.58,26.71-4.89-6.31-20.72-28.49-20.72-28.49-6.8-.43-13.57-.54-20.35-.36-6.61.2-13.21.71-19.74,1.48,0,0,7.1,17.98,9.87,24.21-7.88-6.07-26.88-21.49-26.88-21.49-3.02.61-6.02,1.27-8.97,2-3.05.77-6.09,1.58-9.17,2.46-3.55,1.01-7.04,2.16-10.5,3.35-3.22,1.11-6.41,2.29-9.58,3.55,0,0,10.89,14.53,15.05,20.34-8.29-3.7-30.84-13.32-30.84-13.32-6,2.93-11.91,6.2-17.66,9.68-5.56,3.37-10.97,7.04-16.24,10.92,0,0,14.25,11.81,19.04,15.44-5.16-.76-13.27-1.91-20.11-2.87-6.83-.94-12.37-1.72-12.37-1.72-5.04,4.34-9.89,8.96-14.56,13.82-4.48,4.67-8.76,9.53-12.86,14.64,0,0,16.37,7.67,21.78,9.94-5.34.65-32.1,4.05-32.1,4.05-1.91,2.8-3.73,5.65-5.52,8.56-1.83,2.95-3.6,6-5.31,9.09-1.63,2.92-3.15,5.84-4.61,8.77-1.35,2.67-2.64,5.39-3.83,8.1,0,0,16.7,2.87,23.25,4.04-9.34,3.85-29.77,12.15-29.77,12.15-2.37,6.32-4.37,12.75-6.01,19.22-1.64,6.34-3,12.74-4.08,19.13,0,0,13.24-1.43,23.56-2.17-4.07,3.1-10.5,7.96-15.93,12.05-3.89,2.95-10.6,6.37-15.24,8.3-.17,2.24-.31,4.48-.42,6.74,31.51-6.44,65.94-13.02,92.69-16.05,44.67-5.92,89.65-9.6,134.72-10.96,44.14,1.33,88.18,4.95,131.9,10.94,30.6,3.82,61.02,9.82,91.23,16.26-.09-2.01-.21-4.01-.36-6.01Zm-115.99-16.85c-3.85-13-10.04-25.36-18.33-36.31-8.13-10.75-18.3-20.27-30.33-27.82l-32.91,59.31c-6.22-.15-12.45-.25-18.67-.28l37.05-66.79-.03-.03c-12.32-5.48-25.21-8.61-38.07-9.54-13.45-.96-26.89.48-39.73,4.16-3.93,1.11-7.81,2.46-11.58,4-3.6,1.43-7.15,3.1-10.58,4.93l38.04,63.33c-6.37.07-12.74.22-19.11.4l-32.98-54.97c-6.47,4.74-12.51,10.21-17.93,16.35-5.44,6.14-10.29,12.94-14.42,20.39-4.11,7.41-7.33,15.08-9.63,22.87-1.55.14-3.07.29-4.62.45,2.43-8.66,5.93-17.17,10.47-25.38,4.81-8.66,10.53-16.45,16.99-23.42,6.63-7.12,14.06-13.3,22.03-18.5.25-.29.53-.54.79-.79.32-.27.62-.48.96-.7.32-.18.64-.35.97-.48.3-.13.61-.23.91-.32,4.46-2.65,9.07-5.02,13.77-7.06,4.79-2.09,9.67-3.82,14.64-5.28,14.87-4.26,30.56-5.64,46.19-3.81,15.09,1.69,30.05,6.35,44.09,14.13,14.06,7.81,25.91,18.02,35.31,29.88,9.77,12.3,16.96,26.34,21.22,41.2.05.18.1.35.15.53-1.56-.16-3.1-.31-4.66-.45Zm29.09,3.11c-.68-3.19-1.47-6.37-2.37-9.51-5.09-17.81-13.62-34.59-25.31-49.28-11.25-14.17-25.43-26.38-42.22-35.7-16.79-9.31-34.65-14.86-52.62-16.9-18.67-2.13-37.45-.5-55.2,4.59-17.82,5.09-34.59,13.62-49.29,25.32-14.16,11.24-26.37,25.42-35.69,42.2-7,12.62-11.88,25.86-14.73,39.29-1.6.19-3.19.37-4.78.58,2.89-14.4,8.03-28.59,15.53-42.11,9.62-17.34,22.24-31.99,36.84-43.58,15.19-12.06,32.51-20.89,50.87-26.14,18.35-5.25,37.73-6.94,56.98-4.75,18.53,2.11,37.01,7.86,54.33,17.47,17.34,9.62,31.98,22.24,43.58,36.84,12.06,15.18,20.88,32.51,26.12,50.88,1.08,3.76,2.01,7.56,2.77,11.39-1.59-.21-3.2-.41-4.81-.59Z"/>
      <path d="m491.99,400.42l8.63,1.76s.79,36.05,1.07,50.86c.14,12.63.69,38.04.78,50.67,0,0,.02,1.62.02,1.62,0,0-1.62.39-1.62.39-27.41,6.89-57.36,12.86-85.27,17.21-81.24,12.45-164.27,14.41-246.01,5.67-43.83-4.7-87.49-12.4-130.2-23.17.31-23.26.77-54.47,1.22-77.74,0,0,.54-25.74.54-25.74l.96.4s.54,25.34.54,25.34c.47,22.57,1.17,74.19,1.17,74.19,42.21,9.41,83.42,15.9,126.44,20.09,76.48,7.43,153.91,6.41,230.17-3.1,32.77-4.09,65.66-9.69,97.9-16.83,0,0,.6-36.38.77-49.01.27-14.83.67-35.85,1.06-50.5,0,0-8.17-2.12-8.17-2.12h0Z"/>
      <g>
        <path d="m116.53,506.01c-21.04-2.52-42.8-6.54-63.65-10.59,0,0-1.86-.35-1.86-.35-.3-8.75-.12-17.51.27-26.26.38-8.08.89-16.15,1.92-24.19,0,0,.5,0,.5,0,1.02,8.04,1.53,16.11,1.92,24.19.35,8.06.37,22.32.37,22.32,14.91,4.23,29.7,7.48,44.89,10.95,0,0,15.73,3.44,15.73,3.44,0,0-.08.49-.08.49h0Z"/>
        <path d="m425.41,505.52c20.39-4.46,40.6-8.62,60.62-14.24,0,0,.02-14.42.37-22.48.38-8.08.89-16.15,1.92-24.19,0,0,.5,0,.5,0,1.02,8.04,1.53,16.11,1.92,24.19.39,8.75.57,17.51.27,26.26,0,0-1.86.36-1.86.36-15.37,2.93-32.26,6.23-47.67,8.42-5.32.78-10.64,1.53-15.98,2.18,0,0-.08-.49-.08-.49h0Z"/>
      </g>
      <path d="m41.47,226.12l-10.25-.74c.27-3.7.61-7.34,1.01-10.81,3.67-31.49,13.41-61.64,28.94-89.62,15.54-28.01,35.97-52.23,60.72-71.99,24.84-19.85,52.97-34.44,83.62-43.36C236.1.71,267.59-2.03,299.12,1.48c31.43,3.54,61.42,13.14,89.16,28.53,27.75,15.39,51.76,35.75,71.37,60.52,19.68,24.93,34.03,53.1,42.66,83.73,4.71,16.75,7.62,33.98,8.65,51.21l-10.26.62c-.99-16.51-3.78-33.01-8.29-49.05-8.26-29.32-22-56.28-40.83-80.14-18.76-23.69-41.73-43.18-68.29-57.9-26.55-14.73-55.25-23.92-85.32-27.31-30.17-3.36-60.31-.74-89.59,7.79-29.35,8.54-56.29,22.51-80.08,41.52-23.7,18.92-43.27,42.11-58.15,68.94-14.88,26.8-24.2,55.67-27.72,85.82-.38,3.31-.71,6.8-.97,10.36Z"/>
      <g>
        <path d="m4.76,316.34c-2.9-29.47-4-59.39-4.76-88.98,17.8-4.77,35.84-8.7,54.03-11.67,50.29-7.93,101.13-13.59,152-15.27,22.6-.79,45.22-1.03,67.8-.43,0,0,0,1.07,0,1.07-45.07,1.36-90.05,5.04-134.72,10.96-38.82,4.38-89.98,15.08-128.72,23.17,0,0-1.01,31.86-2.08,49.27-.65,10.64-1.39,21.25-2.48,31.88,0,0-1.07,0-1.07,0h0Z"/>
        <path d="m271.68,428.59c-72.95,1.97-146.04-4.04-218.07-15.72-13.77-2.31-27.75-5.11-41.32-8.52-2.57-.67-9.75-2.47-12.27-3.13.44-18.19,1.13-37.12,2.28-55.3.64-10.28,1.38-20.53,2.45-30.79,0,0,1.07,0,1.07,0,1.08,10.26,1.81,20.51,2.45,30.79,1.06,16.82,2.03,46.3,2.03,46.3l4.37,1.63c18.62,3.84,38.59,8.09,57.28,11.95,43.82,8.61,88.21,14.18,132.71,17.97,22.28,1.85,44.63,3.03,67.01,3.74v1.07h0Z"/>
        <path d="m537.26,313.86c2.96,28.99,4.03,58.26,4.81,87.37-23.04,6.36-46.57,10.79-70.21,14.15-66.46,10.1-133.74,14.92-200.93,13.22,0,0,0-1.07,0-1.07,44.62-1.36,89.14-5.01,133.35-10.97,44.24-5.39,127.21-25.83,127.21-25.83.22-6.95.32-7.37.64-14.32.49-13.74,1.26-28.01,2.23-41.69.52-6.95,1.06-13.9,1.82-20.85h1.07Z"/>
        <path d="m273.83,199.99c83.03-1.91,166.57,5.33,247.92,22.25,6.73,1.64,13.61,3.29,20.32,5.06-.48,22.34-1.4,44.68-2.98,66.98-.53,6.99-1.06,13.99-1.82,20.98,0,0-1.07,0-1.07,0-.76-6.99-1.3-13.99-1.82-20.98-1.48-20.96-4.4-58.96-4.4-58.96-5.4-1.06-5.21-1.11-10.6-2.24-37.56-8.14-75.46-16.3-113.63-21.07-43.72-6-87.77-9.61-131.91-10.94,0,0,0-1.07,0-1.07h0Z"/>
      </g>
      <g>
        <polygon points="39.71 242.53 28.82 242.53 23.38 251.96 28.82 261.39 39.71 261.39 45.15 251.96 39.71 242.53"/>
        <polygon points="39.71 367.2 28.82 367.2 23.38 376.63 28.82 386.05 39.71 386.05 45.15 376.63 39.71 367.2"/>
        <polygon points="513.2 242.53 502.31 242.53 496.87 251.96 502.31 261.39 513.2 261.39 518.64 251.96 513.2 242.53"/>
        <polygon points="513.2 367.2 502.31 367.2 496.87 376.63 502.31 386.05 513.2 386.05 518.64 376.63 513.2 367.2"/>
      </g>
      <g>
        <path class="cls-10" d="m67.44,344.59c5.25.48,1.89.18,7.14.65v-64.79c-5.25.48-2.58.23-7.14.65v-33.63c18.1-3.45,36.26-6.44,54.47-8.96v38.24c-5.08.35-1.9.13-6.98.48,0,23.74,0,47.49,0,71.23,5.08.35,1.9.13,6.98.48v38.24c-18.21-2.52-36.37-5.51-54.47-8.96v-33.63Z"/>
        <path class="cls-1" d="m242.59,350.06c-1.49-.02-2.99-.65-4.07-1.99-2.02-2.48-2.57-1.89-2.57-10.57v-2.32c-1.61-16.67-4.14-17.7-17.13-22.22,13.38-5.49,19.69-17.9,19.68-38.84,0-35.86-18.11-45.03-41.51-43.37-21.41,1.46-42.78,3.56-64.09,6.29v38.99c2.4-.15,4.8-.29,7.19-.44v74.49c-3.68-.14-1.91-.11-7.19-.44v38.99c18.23,2.34,36.5,4.21,54.8,5.62v-41.88c-5.11-.19-2.16-.07-7.02-.27,0-7.07,0-14.14,0-21.21,5.1.09,6.68.37,8.45,1.38,4.91,3.03,5.5,9.68,5.5,15.82v16.1c.02,16.84,11.02,31.33,24.56,32.03,44.07,2.1,88.23,1.52,132.25-1.75v-44.37c-36.23.83-72.57.79-108.87-.04Zm-56.79-51.48c-1.7.02-3.4.05-5.11.07,0-10.91,0-21.82,0-32.73.72-.03,1.44-.07,2.16-.1,11.01-.52,13.56,2.61,13.56,15.65,0,12.56-2.56,16.77-10.62,17.11Z"/>
        <path class="cls-9" d="m351.46,258.46c0,18.99,0,37.97,0,56.96,0,17.86-7.25,26.91-48.97,27.51-41.73.33-49.02-8.9-49.02-27.42v-58.94c0-18.4,7.29-28.15,49.02-27.23,41.72,1.54,48.97,11.37,48.97,29.12Zm-41.1,50.33v-45.14c0-6.27-.59-9.16-7.87-9.31-7.28-.14-7.87,2.74-7.87,9.04v45.38c0,6.31.59,9.18,7.87,9.17,7.28-.02,7.87-2.88,7.87-9.15Z"/>
        <path class="cls-11" d="m364.47,351.98c5.06-.22,1.91-.08,7.21-.31v-77.64c-5.3-.24-1.91-.09-7.21-.31v-41.45c15.69,1.35,31.36,3.05,46.99,5.09,7.83,23.88,15.64,46.93,23.45,68.9v-28.45c-4.81-.38-1.9-.14-7.17-.52v-37.68c15.66,2.28,31.28,4.91,46.85,7.88v33.63c-3.4-.41-1.89-.18-7.14-.65v99.1c-13.16,2.42-26.35,4.59-39.57,6.52-6.38-16.05-12.77-32.8-19.16-50.14-1.76-4.48-3.52-9.46-5.28-14.71v36.6c5.09-.37,3.12-.26,6.99-.52v31.18c-15.29,1.98-30.62,3.63-45.96,4.96v-41.45Z"/>
      </g>
      <g>
        <path class="cls-6" d="m83.78,464.1c-1.04-.2-2.87-.67-4.16-.99v11.53c0,1.73.86,2.7,2.38,2.99v1.73c-4.53-.87-9.05-1.78-13.56-2.71v-1.73c1.53.32,2.32-.26,2.32-2.05v-35.03c0-1.54-.85-2.4-2.32-2.7v-1.6c3.35.52,10.99,1.68,15.21,2.47,11.93,2.27,19.23,6.74,19.23,17.29,0,8.69-7.24,13.05-19.11,10.79Zm.49-20.75c-1.9-.36-3.55-.56-4.65-.71v13.26c1.28.31,2.93.69,4.4.97,7.4,1.4,9.79-1.15,9.79-5.15,0-4.57-3.43-7.21-9.55-8.37Z"/>
        <path class="cls-2" d="m144.76,489.39c-4.58-.58-9.16-1.2-13.73-1.85v-1.73c1.23.05,1.6-.33,1.6-1.13,0-.43-.12-1-.31-1.58-.29-.88-.57-1.77-.86-2.65-1.97.16-5.6-.06-8.3-.47-2.71-.4-6.08-1.3-8.23-2.01-.29.9-.57,1.8-.86,2.7-.12.54-.18,1.08-.18,1.39,0,.68.43,1.06,1.66,1.43v1.73c-4.28-.67-8.56-1.38-12.83-2.11v-1.73c1.04.18,1.96-.16,2.82-2.48,3.84-10.62,7.69-21.26,11.54-31.93.25-.64.43-1.35.43-1.66,0-.68-.25-1.33-1.04-1.46v-1.66c4.77.75,9.55,1.46,14.33,2.14v1.66c-.86-.12-1.17.39-1.17.88,0,.31.25,1.27.55,2.11,3.96,11.87,7.92,23.72,11.88,35.54.74,2.13,1.66,2.99,2.71,3.12v1.73Zm-21.79-36.57s-.08-.01-.12-.02c-1.91,6.15-3.81,12.29-5.72,18.43,1.9.67,4.06,1.24,6.15,1.56,2.03.3,4.12.36,5.9.25-2.07-6.73-4.14-13.47-6.21-20.21Z"/>
        <path class="cls-7" d="m186.98,493.86c-3.96-.33-7.91-.69-11.87-1.07-2.9-5.77-5.37-12.19-6.73-16.83-.62-.06-1.3-.07-1.91-.14-1.48-.16-3.03-.32-4.51-.55v11.96c0,1.79.86,2.56,2.41,2.73,0,.58,0,1.15,0,1.73-4.53-.49-9.05-1-13.57-1.55,0-.58,0-1.15,0-1.73,1.42.17,2.34-.58,2.34-2.19,0-11.66,0-23.31,0-34.97,0-1.66-.92-2.45-2.34-2.63,0-.56,0-1.11,0-1.66,4.38.36,12.03.9,15.3,1.24,12.41,1.3,19.65,5.13,19.65,15.07,0,6.6-4.14,10.57-9.02,11.83,2.22,6.01,4.57,11.34,6.92,15.12.49.78,1.48,1.73,3.34,1.89v1.73Zm-20.14-38.35c-1.42-.15-3.27-.22-4.88-.34v12.83c1.3.21,3.83.54,5.37.7,6.55.68,9.45-1.84,9.45-5.91,0-4.32-2.35-6.49-9.94-7.28Z"/>
        <path class="cls-12" d="m231.85,462.33c-.5.17-.99.33-1.49.5-.68-1.63-1.86-2.29-4.65-2.42-3.22-.15-6.44-.31-9.66-.48v31.7c0,1.91.99,2.58,2.48,2.66v1.73c-4.64-.24-9.29-.52-13.93-.83v-1.73c1.49.1,2.48-.52,2.48-2.37v-31.7c-3.12-.2-6.23-.41-9.34-.64-2.97-.22-4.02.25-4.76,1.86-.54-.23-1.07-.45-1.61-.68.66-3.01,1.32-6.02,1.98-9.03.99.26,2.04.47,3.71.59,9.82.73,19.64,1.31,29.47,1.75.87.04,2.35-.02,3.35-.17.66,3.09,1.32,6.18,1.98,9.27Z"/>
        <path class="cls-8" d="m252.61,498.27c-5.14-.09-8.43-1.24-10.1-1.28-1.24-.04-2.29.3-3.35.7-.62-4.21-1.24-8.43-1.86-12.64.68-.14,1.36-.28,2.04-.43,1.12,2.8,4.21,6.19,12.27,6.42,6.88.19,8.93-2.46,8.93-5.48,0-2.28-1.86-4.03-5.21-5.37-2.34-.94-4.67-1.89-7-2.85-5.27-2.15-9.61-5.69-9.61-12.53,0-8.33,7.25-11.84,15.37-11.71,4.4.07,7.44,1.02,8.86,1.03,1.43.01,2.17-.17,2.98-.47.5,3.62.99,7.24,1.49,10.86-.7.14-1.41.28-2.11.42-1.61-2.54-4.77-4.65-10.6-4.74-5.45-.09-6.82,2.21-6.82,4.25,0,1.91,1.3,3.3,4.71,4.66,2.48.99,4.96,1.97,7.44,2.94,5.27,2.09,9.8,5.73,9.8,13.01,0,8.38-6.39,13.41-17.23,13.22Z"/>
        <path class="cls-4" d="m334.34,495.35c-4.6.29-9.2.56-13.81.79,0-.58,0-1.15,0-1.73,1.24-.19,1.61-.64,1.61-1.44,0-.43-.12-.98-.31-1.53-.29-.83-.58-1.66-.87-2.48-1.98.53-5.64,1.01-8.36,1.13-2.73.12-6.13-.13-8.3-.43-.29.96-.58,1.91-.87,2.87-.12.56-.19,1.12-.19,1.42,0,.68.43.97,1.67,1.12v1.73c-4.32.15-8.64.27-12.95.36v-1.73c1.05-.02,1.98-.54,2.85-3.02,3.88-11.36,7.77-22.74,11.65-34.14.25-.69.43-1.43.43-1.74,0-.68-.25-1.29-1.05-1.26v-1.66c4.81-.17,9.62-.37,14.43-.61v1.66c-.87.04-1.18.61-1.18,1.11,0,.31.25,1.22.56,2.01,3.98,11.11,7.97,22.2,11.95,33.26.74,1.99,1.67,2.67,2.72,2.6v1.73Zm-21.92-32.39s-.08,0-.12,0c-1.92,6.51-3.84,13.02-5.76,19.53,1.92.3,4.09.46,6.2.38,2.04-.09,4.15-.43,5.95-.89-2.09-6.33-4.17-12.67-6.26-19.02Z"/>
        <path class="cls-3" d="m378.54,450.04c-1.42.15-2.35.99-2.35,2.78v28.18c0,1.6.19,2.82.74,4.11-5.68,5.05-11.49,8.71-17.98,9.28-6.98.62-12.49-1.3-18.31-5.95.56-1.64.68-3.07.68-4.24v-28c0-2.03-.87-2.78-2.41-2.67v-1.66c4.6-.31,9.2-.66,13.79-1.04v1.66c-1.55.13-2.41.94-2.41,3.03,0,8.7,0,17.39,0,26.09,0,3.51,3.09,5.68,8.84,5.17,5.38-.48,8.53-3.63,8.53-6.59v-26.39c0-1.91-.87-2.57-2.35-2.43v-1.66c4.41-.42,8.81-.87,13.21-1.35v1.66Z"/>
        <path class="cls-13" d="m424.78,451.13c-.49.26-.98.52-1.48.78-.68-1.5-1.84-1.93-4.61-1.52-3.2.48-6.4.94-9.6,1.39v31.7c0,1.91.98,2.39,2.46,2.18,0,.58,0,1.15,0,1.73-4.61.66-9.23,1.28-13.85,1.88v-1.73c1.48-.19,2.47-1,2.46-2.85v-31.7c-3.1.41-6.2.8-9.31,1.17-2.96.36-4.01,1.03-4.75,2.78-.53-.12-1.07-.25-1.6-.37.66-3.14,1.32-6.28,1.97-9.42.99.07,2.03.07,3.7-.13,9.78-1.18,19.55-2.5,29.31-3.97.86-.13,2.34-.48,3.32-.81.66,2.96,1.31,5.92,1.97,8.88Z"/>
        <path class="cls-14" d="m451.33,481.96c-11.75,2.17-21.71-4.33-21.7-18.89,0-14.8,10.13-24.18,21.7-26.32,11.94-2.19,21.76,3.7,21.76,18.32,0,13.93-9.27,24.59-21.76,26.89Zm0-37.68c-6.55,1.21-12.26,7.29-12.26,17.22,0,9.68,5.58,14.23,12.26,13,6.67-1.23,12.42-7.61,12.42-17.48,0-10.12-5.68-13.98-12.42-12.74Z"/>
      </g>
    </g>
  </g>
</svg>